 <svg
                  width="193"
                  height="61"
                  viewBox="0 0 193 61"
                  fill="none"
                  xmlns="http://www.w3.org/2000/svg"
                >
                  <path
                    d="M30.2278 60.5152C46.9222 60.5152 60.4556 46.9684 60.4556 30.2576C60.4556 13.5468 46.9222 0 30.2278 0C13.5335 0 0 13.5468 0 30.2576C0 46.9684 13.5335 60.5152 30.2278 60.5152Z"
                    fill="white"
                  />
                  <path
                    d="M30.2279 59.497C46.3605 59.497 59.4385 46.4061 59.4385 30.2576C59.4385 14.1092 46.3605 1.01831 30.2279 1.01831C14.0954 1.01831 1.0174 14.1092 1.0174 30.2576C1.0174 46.4061 14.0954 59.497 30.2279 59.497Z"
                    fill="#E80003"
                  />
                  <path
                    d="M42.2903 53.0092C42.2322 53.0965 42.3194 52.9801 42.0578 53.3002C41.9125 53.4747 41.7381 53.5911 41.5637 53.7657C40.5174 54.7839 39.3838 55.4531 37.8434 55.1331C37.8724 54.9876 37.8434 54.9003 37.7852 54.7549C37.2911 53.7366 37.3202 53.6202 38.3665 53.3874C38.3956 53.3874 38.3956 53.3584 38.4247 53.3584C39.6745 53.4165 40.8952 53.0965 42.0287 52.6601C42.4647 52.4855 42.4938 52.6601 42.4938 52.6601C42.4066 52.8638 42.3194 52.8929 42.2903 53.0092Z"
                    fill="#EDDBB3"
                  />
                  <path
                    d="M25.4327 32.9054C28.5427 32.8472 31.5945 32.8182 34.6464 32.7891C34.6173 32.8763 34.6463 32.9636 34.6173 32.9927C33.4256 34.0692 32.263 35.1748 31.0423 36.2221C30.5191 36.6585 29.7053 36.7167 29.2112 36.2803C27.9323 35.2039 26.6825 34.0401 25.4327 32.9054Z"
                    fill="#EDDBB3"
                  />
                  <path
                    d="M43.7726 40.0333C44.2377 38.8987 44.9643 37.9095 45.7782 36.9785C45.9525 36.8039 46.0688 36.7748 46.2432 36.9785C47.057 37.9968 47.8127 39.0441 47.9871 40.3824C48.0743 40.9643 48.0162 41.5171 47.493 41.9244C47.4639 41.9244 47.4349 41.9244 47.4058 41.9535C47.3186 41.9826 47.2314 42.0408 47.1442 42.0699C46.9408 41.9244 46.7664 41.7499 46.5629 41.6626C45.5456 41.2844 44.6737 40.6443 43.7726 40.0333Z"
                    fill="#EDDBB3"
                  />
                  <path
                    d="M13.1381 42.1281C12.3824 41.8662 12.0917 41.4298 12.1498 40.5861C12.2661 39.1605 13.0799 38.0549 13.9228 36.9785C14.1553 36.6875 14.3007 36.9203 14.446 37.0657C15.2598 37.9386 15.9283 38.9277 16.3934 40.0333C15.4923 40.7607 14.5041 41.3425 13.4578 41.7789C13.2543 41.8662 13.109 41.9244 13.1381 42.1281Z"
                    fill="#EDDBB3"
                  />
                  <path
                    d="M22.3807 55.1329C20.724 55.5693 18.3987 54.3474 17.8465 52.7472C17.8465 52.7181 17.8756 52.66 17.9046 52.6309C19.4741 53.2709 21.1309 53.3291 22.7876 53.4164C22.8457 53.5037 22.8457 53.591 22.8166 53.7073C22.6132 54.1437 22.3516 54.6092 22.3807 55.1329Z"
                    fill="#EDDBB3"
                  />
                  <path
                    d="M43.7726 40.0333C44.6446 40.6734 45.5456 41.2844 46.5629 41.6917C46.7664 41.779 46.9407 41.9535 47.1442 42.099C46.592 42.4481 45.9816 42.2736 45.4003 42.2154C45.1096 42.1863 44.7899 42.099 44.4993 42.0408C43.0169 41.6626 42.9297 41.4007 43.7726 40.0333Z"
                    fill="#E3BD86"
                  />
                  <path
                    d="M13.1379 42.1281C13.1379 41.9244 13.2542 41.8371 13.4286 41.779C14.504 41.3426 15.4631 40.7607 16.3642 40.0333C17.1489 41.5462 17.1199 41.6917 15.5213 42.0408C14.7365 42.2154 13.9517 42.419 13.1379 42.1281Z"
                    fill="#E3BD86"
                  />
                  <path
                    d="M22.3805 55.1331C22.3515 54.6094 22.613 54.1439 22.8165 53.7075C22.8746 53.5912 22.8746 53.5039 22.7874 53.4166C23.5141 53.3293 24.2407 53.2711 24.9673 53.1838C24.3279 54.1148 23.6013 54.9586 22.3805 55.1331Z"
                    fill="#E3BD86"
                  />
                  <path
                    d="M38.3956 53.3293C38.3665 53.3293 38.3665 53.3584 38.3374 53.3584C37.2911 53.5912 37.262 53.7075 37.7561 54.7258C37.8143 54.8422 37.8433 54.9586 37.8143 55.104C36.797 54.9295 35.7797 54.2312 35.0821 53.1838C36.2447 53.242 37.3201 53.2711 38.3956 53.3293Z"
                    fill="#E3BD86"
                  />
                  <path
                    d="M47.4057 41.9827C47.4348 41.9536 47.4348 41.9536 47.493 41.9536L47.4639 42.0118L47.4057 41.9827Z"
                    fill="#E3BD86"
                  />
                  <path
                    d="M17.9052 52.6018C17.9052 52.6018 17.8757 52.6018 17.8757 52.6313C17.8757 52.6313 17.9052 52.6313 17.9052 52.6018C17.9052 52.6018 17.9052 52.6313 17.9052 52.6018Z"
                    fill="#EDDBB3"
                  />
                  <path
                    d="M54.2071 12.8013C54.0327 12.714 53.9165 12.8595 53.8002 12.9468C52.7829 13.645 51.6494 14.1978 50.4286 14.4015C48.6266 14.7215 46.9117 15.187 45.2841 16.0889C44.9934 16.2635 45.0225 16.0307 45.0225 15.8853C45.0225 14.7506 45.0225 13.6159 45.0225 12.4813C45.0225 9.36824 42.7264 7.06982 39.6164 7.06982C33.1639 7.06982 26.7405 7.06982 20.288 7.06982C17.2362 7.06982 14.94 9.36824 14.94 12.4231C14.94 17.66 14.94 22.8969 14.94 28.1629C14.94 28.512 14.9691 28.8902 15.0272 29.2393C15.3469 30.7813 16.277 32.0324 17.5559 32.7597C17.4978 32.8179 17.4396 32.8761 17.3524 32.9343C15.5794 34.4471 13.8937 35.9891 12.6439 37.9966C12.1207 38.8112 11.7138 39.684 11.7138 40.7023C11.7138 41.7497 12.5276 42.5934 13.5739 42.6516C14.3587 42.7098 15.1144 42.5934 15.8701 42.3316C16.4223 42.157 16.5386 42.2734 16.4514 42.8553C16.1898 44.8627 16.0736 46.8993 16.3061 48.9068C16.5095 50.7979 16.9746 52.6017 18.3116 54.0564C20.2008 56.1221 22.7876 56.1803 24.7931 54.2019C25.3163 53.6782 25.7813 53.1254 26.1301 52.4853C26.3045 52.2235 26.4789 52.078 26.8277 52.1071C29.0076 52.2235 31.1875 52.2235 33.3674 52.1071C33.6871 52.078 33.8905 52.1653 34.0649 52.4562C34.4137 53.0381 34.8497 53.5909 35.3147 54.0564C37.5237 56.2675 40.5465 55.9766 42.3194 53.3872C42.3194 53.3872 42.581 53.009 42.6392 52.8926C42.6392 52.8636 42.6682 52.8636 42.6682 52.8636C43.6855 51.0306 43.918 49.0523 43.9471 47.0157C43.9762 45.6192 43.889 44.2518 43.6855 42.8553C43.5983 42.1861 43.8018 42.1861 44.3249 42.3316C45.1388 42.5643 45.9526 42.7389 46.7955 42.5934C47.8418 42.4189 48.3941 41.837 48.4231 40.7605C48.4522 39.5677 47.929 38.5785 47.2896 37.6475C46.0689 35.8436 44.4703 34.389 42.8426 32.9634C42.7264 32.8761 42.6101 32.7888 42.4938 32.7015C43.9471 31.8287 44.9353 30.3158 44.9934 28.4538C45.0806 26.4172 45.0225 24.3807 45.0225 22.3441C45.0225 22.1695 44.9934 22.0241 45.0806 21.8204C45.226 21.8495 45.3713 21.9077 45.5166 21.9368C47.1443 22.4314 48.7719 22.5478 50.3996 21.995C51.2134 21.7331 51.94 21.2967 52.5504 20.6858C52.6376 20.5985 52.7248 20.5112 52.6957 20.3657C52.6667 20.2493 52.5213 20.2493 52.4341 20.2493C50.7484 20.3366 49.1498 19.842 47.5802 19.2602C47.493 19.2311 47.4058 19.2311 47.4058 19.0856C47.5512 18.9983 47.7546 18.9983 47.929 18.9983C49.3242 18.8237 50.6321 18.3873 51.7656 17.5436C53.248 16.4671 54.0909 15.0415 54.2943 13.2377C54.3524 13.1213 54.4106 12.9177 54.2071 12.8013ZM15.5213 42.0406C14.7366 42.2152 13.9518 42.448 13.138 42.157C12.3823 41.8952 12.0916 41.4588 12.1498 40.615C12.266 39.1894 13.0798 38.0839 13.9227 37.0074C14.1553 36.7165 14.3006 36.9492 14.4459 37.0947C15.2597 37.9675 15.9282 38.9567 16.3933 40.0623C17.178 41.517 17.1199 41.6624 15.5213 42.0406ZM43.7727 40.0332C44.2377 38.8985 44.9644 37.9093 45.7782 36.9783C45.9526 36.8037 46.0688 36.7747 46.2432 36.9783C47.0571 37.9966 47.8128 39.044 47.9872 40.3823C48.0743 40.9642 48.0162 41.517 47.4931 41.9243L47.464 41.9825H47.4058C47.3187 42.0115 47.2315 42.0697 47.1443 42.0988C46.592 42.448 45.9817 42.2734 45.4004 42.2152C45.1097 42.1861 44.79 42.0988 44.4993 42.0406C43.017 41.6624 42.9298 41.4006 43.7727 40.0332ZM18.8348 15.5361C18.8638 14.3433 19.7939 13.4996 20.9856 13.4996C24.0084 13.4996 27.0311 13.4996 30.0249 13.4996C32.9895 13.4996 35.9542 13.4996 38.9479 13.4996C40.1977 13.4996 41.0987 14.3433 41.1278 15.5943C41.1568 17.0199 41.1568 18.4746 41.1278 19.9002C41.0987 21.1222 40.1686 21.995 38.9769 21.995C37.6981 21.995 36.4483 21.995 35.1694 21.995C34.2974 21.995 33.4836 21.7913 32.6989 21.3258C32.0594 20.9476 31.42 20.5694 30.7806 20.1912C30.2283 19.842 29.6761 19.8711 29.1238 20.1912C28.4844 20.5694 27.845 20.9476 27.2055 21.3258C26.4498 21.7913 25.636 21.995 24.735 21.9659C23.4561 21.9659 22.2063 21.9659 20.9275 21.9659C19.7358 21.9659 18.8057 21.1222 18.7766 19.9293C18.8057 18.4746 18.8057 17.0199 18.8348 15.5361ZM22.3807 55.1329C20.724 55.5693 18.3988 54.3473 17.8465 52.7472C17.8465 52.7181 17.8756 52.689 17.8756 52.6599C19.4451 53.2709 21.1018 53.3582 22.7586 53.4454C23.4852 53.3582 24.2118 53.3 24.9384 53.2127C24.3281 54.1146 23.6014 54.9583 22.3807 55.1329ZM31.0421 36.2219C30.519 36.6583 29.7051 36.7165 29.211 36.2801C28.1356 35.3782 27.1183 34.4181 26.072 33.487C28.4553 33.487 30.8387 33.487 33.193 33.487C33.4836 33.487 33.6871 33.5452 33.8033 33.7198C32.9023 34.5635 31.9722 35.4072 31.0421 36.2219ZM42.1451 53.1545C41.8835 53.4745 41.7091 53.5909 41.5637 53.7364C40.5174 54.7547 39.3839 55.4238 37.8434 55.1038C36.8261 54.9292 35.8088 54.231 35.1113 53.1836C36.2448 53.2418 37.3202 53.2709 38.3956 53.3291C39.6454 53.3872 40.8662 53.0672 41.9997 52.6308C42.2322 52.5435 42.2904 52.689 42.3485 52.8054C42.3776 52.8054 42.2322 53.0672 42.1451 53.1545Z"
                    fill="#150F11"
                  />
                  <path
                    d="M30.0243 13.4121C32.989 13.4121 35.9536 13.4121 38.9473 13.4121C40.1971 13.4121 41.0982 14.2849 41.1272 15.536C41.1563 16.9907 41.1563 18.4453 41.1272 19.8709C41.0982 21.122 40.1681 21.9657 38.9764 21.9657C37.6975 21.9657 36.4477 21.9657 35.1689 21.9657C34.2969 21.9657 33.4831 21.7621 32.6983 21.2965C32.0589 20.9183 31.4194 20.5401 30.78 20.1619C30.2278 19.8128 29.6755 19.8128 29.1233 20.1619C28.4839 20.5401 27.8444 20.9183 27.205 21.2965C26.4493 21.7621 25.6355 21.9657 24.7344 21.9657C23.4556 21.9657 22.2058 21.9657 20.9269 21.9657C19.7352 21.9657 18.8051 21.122 18.7761 19.9C18.747 18.4163 18.747 16.9325 18.7761 15.4778C18.8051 14.2558 19.7352 13.4121 20.9269 13.4121C23.9788 13.4121 27.0015 13.4121 30.0243 13.4121ZM26.8562 17.5725H26.8853C26.8562 17.5434 26.8562 17.5434 26.8271 17.5143L26.8562 17.5725Z"
                    fill="#EDDBB3"
                  />
                  <path
                    d="M24.7637 21.1222C26.0318 21.1222 27.0598 20.0932 27.0598 18.8238C27.0598 17.5544 26.0318 16.5254 24.7637 16.5254C23.4956 16.5254 22.4675 17.5544 22.4675 18.8238C22.4675 20.0932 23.4956 21.1222 24.7637 21.1222Z"
                    fill="#150F11"
                  />
                  <path
                    d="M35.0533 21.1225C36.3214 21.1225 37.3494 20.0934 37.3494 18.8241C37.3494 17.5547 36.3214 16.5256 35.0533 16.5256C33.7852 16.5256 32.7571 17.5547 32.7571 18.8241C32.7571 20.0934 33.7852 21.1225 35.0533 21.1225Z"
                    fill="#150F11"
                  />
                  <path
                    d="M48.7137 42.0117C48.7428 41.9826 48.7719 41.9535 48.801 41.9535L48.7719 42.0117H48.7137Z"
                    fill="#E3BD86"
                  />
                  <path
                    d="M26.8272 17.4854C26.8561 17.5143 26.8561 17.5143 26.8851 17.5433H26.8561C26.8561 17.5143 26.8561 17.4854 26.8272 17.4854C26.8272 17.4854 26.8561 17.4854 26.8272 17.4854Z"
                    fill="#080607"
                  />
                  <path
                    d="M33.7741 20.1621C33.3962 20.1621 33.1056 19.8421 33.1056 19.4639C33.1056 19.0566 33.4253 18.7656 33.8322 18.7656C34.2101 18.7947 34.5007 19.1147 34.5007 19.4639C34.4717 19.8421 34.1229 20.1621 33.7741 20.1621Z"
                    fill="white"
                  />
                  <path
                    d="M33.0479 15.5361C32.7863 15.5071 32.7572 15.3325 32.8735 15.1288C33.1641 14.4888 33.7454 14.2269 34.3849 14.1396C35.6056 13.936 36.7101 14.3433 37.7274 14.9543C37.8436 15.0416 37.9308 15.1288 38.0471 15.2452C38.1633 15.3616 38.2505 15.5071 38.1633 15.6816C38.0761 15.8271 37.9308 15.798 37.7855 15.7689C36.3322 15.3616 34.8499 15.3325 33.3676 15.5652C33.2513 15.5652 33.1641 15.5361 33.0479 15.5361Z"
                    fill="#150F11"
                  />
                  <path
                    d="M26.9441 15.5361C27.2056 15.5071 27.2347 15.3325 27.1184 15.1288C26.8278 14.4888 26.2465 14.2269 25.6071 14.1396C24.3863 13.936 23.2818 14.3433 22.2646 14.9543C22.1483 15.0416 22.0611 15.1288 21.9448 15.2452C21.8286 15.3616 21.7414 15.5071 21.8286 15.6816C21.9158 15.8271 22.0611 15.798 22.2064 15.7689C23.6597 15.3616 25.142 15.3325 26.6243 15.5652C26.7406 15.5652 26.8278 15.5361 26.9441 15.5361Z"
                    fill="#150F11"
                  />
                  <path
                    d="M29.9375 42.6808C33.3382 42.7099 36.5353 43.1172 39.3256 44.2228C39.7325 44.3973 40.1104 44.5719 40.4591 44.7756C40.8661 45.0083 40.8661 45.212 40.4591 45.4447C39.064 46.2012 37.3782 46.7249 35.5181 47.0449C31.1292 47.8013 26.7694 47.714 22.584 46.6376C21.4505 46.3466 20.4042 45.9684 19.5031 45.4738C19.0381 45.212 19.0381 45.0083 19.5322 44.7465C21.1308 43.8737 23.0782 43.3791 25.1999 43.0299C26.7113 42.7972 28.3099 42.6517 29.9375 42.6808Z"
                    fill="#EDDBB3"
                  />
                  <path
                    d="M29.9955 45.9975C30.445 45.9975 30.8093 45.6328 30.8093 45.1829C30.8093 44.733 30.445 44.3683 29.9955 44.3683C29.546 44.3683 29.1817 44.733 29.1817 45.1829C29.1817 45.6328 29.546 45.9975 29.9955 45.9975Z"
                    fill="#150F11"
                  />
                  <path
                    d="M30.4026 45.6776C30.6916 45.6776 30.9258 45.4432 30.9258 45.1539C30.9258 44.8647 30.6916 44.6302 30.4026 44.6302C30.1137 44.6302 29.8795 44.8647 29.8795 45.1539C29.8795 45.4432 30.1137 45.6776 30.4026 45.6776Z"
                    fill="#EDDBB3"
                  />
                  <path
                    d="M18.7765 32.6145C18.2242 33.0509 17.9336 32.9927 17.4395 32.5563C15.5793 30.8979 13.661 29.2978 11.8008 27.6394C11.3649 27.2321 11.1323 27.0866 10.6382 27.6394C9.18496 29.2978 9.1559 29.2687 10.9289 30.6943C12.4693 31.9453 14.0389 33.1963 15.5793 34.4765C15.899 34.7383 16.2187 34.9711 16.0153 35.5239"
                    fill="#150F11"
                  />
                  <path
                    d="M7.93501 24.2353C7.15024 24.2062 6.62707 24.439 6.30735 25.0499C5.95857 25.7191 6.04577 26.3301 6.56894 26.8247C7.00492 27.2611 7.52809 27.5811 7.96407 28.0175C8.51631 28.5703 8.95229 28.5994 9.38827 27.9011C9.73705 27.3484 10.7834 26.7665 10.4927 26.3592C9.82424 25.4573 8.92322 24.6426 7.93501 24.2353Z"
                    fill="#150F11"
                  />
                  <path
                    d="M40.4012 33.4288C40.9534 33.8652 41.244 33.7779 41.7381 33.3415C43.5693 31.6541 45.4876 30.0539 47.3187 28.3665C47.7547 27.9592 47.9872 27.8137 48.4813 28.3665C49.9345 30.0248 49.9636 29.9957 48.2197 31.4213C46.6792 32.7015 45.1388 33.9525 43.5983 35.2326C43.2786 35.4945 42.9589 35.7272 43.1623 36.28"
                    fill="#150F11"
                  />
                  <path
                    d="M51.1551 24.9334C51.9399 24.9043 52.463 25.1079 52.8118 25.7189C53.1606 26.388 53.0734 26.999 52.5793 27.5227C52.1724 27.9591 51.6201 28.3082 51.2132 28.7446C50.661 29.2974 50.2541 29.3265 49.789 28.6283C49.4402 28.0755 48.3939 27.4936 48.6845 27.0863C49.2949 26.1844 50.1669 25.3698 51.1551 24.9334Z"
                    fill="#150F11"
                  />
                  <path
                    d="M23.4849 20.1621C23.1071 20.1621 22.8164 19.8421 22.8164 19.4639C22.8164 19.0566 23.1362 18.7656 23.5431 18.7656C23.9209 18.7947 24.2116 19.1147 24.2116 19.4639C24.1825 19.8421 23.8337 20.1621 23.4849 20.1621Z"
                    fill="white"
                  />
                  <path
                    d="M72.7407 21.1496C72.7407 16.3806 76.4056 13.0266 81.5363 13.0266C84.8347 13.0266 87.4524 14.4416 88.6042 17.0619L85.0441 18.9485C84.2064 17.4287 82.9499 16.7999 81.484 16.7999C79.1804 16.7999 77.3479 18.4245 77.3479 21.1496C77.3479 23.9271 79.1804 25.4993 81.484 25.4993C82.8976 25.4993 84.2064 24.8705 85.0441 23.3507L88.6042 25.2897C87.4524 27.8052 84.8347 29.2726 81.5363 29.2726C76.4056 29.2726 72.7407 25.9186 72.7407 21.1496Z"
                    fill="white"
                  />
                  <path
                    d="M91.9016 22.8791V13.2363H96.4565V18.5818C97.2418 18.0577 98.7077 17.4812 100.75 17.4812C104.571 17.4812 106.927 19.4203 106.927 23.246C106.927 27.2812 103.943 29.4823 99.4407 29.4823C94.3623 29.4823 91.9016 27.1764 91.9016 22.8791ZM102.32 23.2984C102.32 21.6738 101.325 20.5732 99.4407 20.5732C98.0795 20.5732 97.0847 21.1497 96.5088 22.0406V23.3508C96.5088 25.1326 97.5036 26.2855 99.4931 26.2855C101.378 26.2855 102.32 24.9754 102.32 23.2984ZM108.603 13.2363H113.158V29.0107H108.603V13.2363Z"
                    fill="white"
                  />
                  <path
                    d="M145.043 19.9967V29.0106H140.488V20.678C140.488 18.11 139.336 16.9571 137.504 16.9571C135.462 16.9571 133.996 18.2672 133.996 21.0972V29.0106H129.441V20.678C129.441 18.11 128.341 16.9571 126.457 16.9571C124.415 16.9571 123.001 18.2672 123.001 21.0972V29.0106H118.446V13.2362H122.792V15.0705C123.944 13.7079 125.724 13.0266 127.766 13.0266C129.964 13.0266 131.849 13.8651 132.949 15.5945C134.205 13.9699 136.247 13.0266 138.655 13.0266C142.373 13.0266 145.043 15.1753 145.043 19.9967Z"
                    fill="white"
                  />
                  <path
                    d="M149.546 22.8791V13.2363H154.1V18.5818C154.886 18.0577 156.352 17.4812 158.393 17.4812C162.215 17.4812 164.571 19.4203 164.571 23.246C164.571 27.2812 161.587 29.4823 157.085 29.4823C152.006 29.4823 149.546 27.1764 149.546 22.8791ZM159.964 23.2984C159.964 21.6738 158.969 20.5732 157.085 20.5732C155.723 20.5732 154.729 21.1497 154.153 22.0406V23.3508C154.153 25.1326 155.147 26.2855 157.137 26.2855C159.022 26.2855 159.964 24.9754 159.964 23.2984ZM166.247 13.2363H170.802V29.0107H166.247V13.2363Z"
                    fill="white"
                  />
                  <path
                    d="M191.638 13.2364V29.0107H187.24V27.1764C186.036 28.539 184.256 29.2727 182.371 29.2727C178.392 29.2727 175.618 27.0192 175.618 22.1454V13.2364H180.173V21.4642C180.173 24.0845 181.324 25.2898 183.366 25.2898C185.46 25.2898 187.031 23.9272 187.031 21.0449V13.2364H191.638ZM178.34 7H181.324C181.377 8.36257 182.057 9.14866 183.471 9.14866C184.884 9.14866 185.67 8.31016 185.67 7H188.706C188.654 10.0396 186.926 11.5594 183.471 11.5594C180.068 11.5594 178.34 10.0396 178.34 7Z"
                    fill="white"
                  />
                  <path
                    d="M74.0497 33.9369H78.6569V40.2256H85.6725V33.9369H90.332V50.0256H85.6725V43.9989H78.7093V50.0256H74.1021V33.9369H74.0497Z"
                    fill="#E80003"
                  />
                  <path
                    d="M111.535 33.9368V50.0256H107.085V48.139C105.881 49.5539 104.049 50.2352 102.112 50.2352C98.028 50.2352 95.2008 47.9817 95.2008 43.0031V33.9368H99.8604V42.3218C99.8604 44.9946 101.065 46.1999 103.106 46.1999C105.253 46.1999 106.824 44.8373 106.824 41.8502V33.8844H111.535V33.9368Z"
                    fill="#E80003"
                  />
                  <path
                    d="M116.875 33.9369H121.483V40.2256H128.446V33.9369H133.105V50.0256H128.446V43.9989H121.483V50.0256H116.875V33.9369Z"
                    fill="#E80003"
                  />
                  <path
                    d="M154.834 33.9368V47.3005C154.834 53.2748 151.588 55.9999 145.829 55.9999C142.792 55.9999 139.808 55.2663 137.975 53.7989L139.808 50.4449C141.169 51.5454 143.42 52.2791 145.462 52.2791C148.76 52.2791 150.174 50.7593 150.174 47.877V47.1957C148.97 48.5582 147.19 49.1871 145.096 49.1871C140.645 49.1871 137.085 46.0951 137.085 41.431C137.085 36.7668 140.645 33.6748 145.096 33.6748C147.347 33.6748 149.179 34.4085 150.383 35.9807V33.9368H154.834ZM150.279 41.4834C150.279 39.1251 148.499 37.5529 146.09 37.5529C143.63 37.5529 141.85 39.1251 141.85 41.4834C141.85 43.8417 143.63 45.4138 146.09 45.4138C148.499 45.4138 150.279 43.8417 150.279 41.4834Z"
                    fill="#E80003"
                  />
                  <path
                    d="M173.524 45.2565C173.524 48.4009 170.069 50.34 165.514 50.34C163.053 50.34 160.54 49.8159 158.446 48.7678L159.702 45.5186C161.378 46.3047 163.367 46.7239 165.304 46.7239C167.451 46.7239 168.812 46.0427 168.812 44.8373C168.812 43.7892 167.922 43.2651 166.247 43.2651H162.948V40.3828H165.828C167.451 40.3828 168.341 39.8587 168.341 38.863C168.341 37.8672 167.242 37.2384 165.2 37.2384C163.577 37.2384 161.901 37.6052 160.121 38.3389L158.97 35.0897C161.168 34.1464 163.367 33.6223 165.462 33.6223C169.807 33.6223 173.053 35.2993 173.053 38.1293C173.053 39.6491 172.058 40.9592 170.488 41.6405C172.425 42.2694 173.524 43.5271 173.524 45.2565Z"
                    fill="#E80003"
                  />
                  <path
                    d="M192.004 33.9369V50.0256H187.868V45.4139H184.413L181.376 50.0256H176.403L180.068 44.785C177.869 43.8941 176.612 42.2695 176.612 39.9112C176.612 36.0855 179.544 33.9893 184.308 33.9893H192.004V33.9369ZM181.429 40.016C181.429 41.6406 182.423 42.3219 184.361 42.3219H187.868V37.7626H184.413C182.476 37.7102 181.429 38.3914 181.429 40.016Z"
                    fill="#E80003"
                  />
                </svg>